<?xml version="1.0" encoding="UTF-8" standalone="no"?>
<svg
   xmlns:dc="http://purl.org/dc/elements/1.1/"
   xmlns:cc="http://creativecommons.org/ns#"
   xmlns:rdf="http://www.w3.org/1999/02/22-rdf-syntax-ns#"
   xmlns:svg="http://www.w3.org/2000/svg"
   xmlns="http://www.w3.org/2000/svg"
   xmlns:sodipodi="http://sodipodi.sourceforge.net/DTD/sodipodi-0.dtd"
   xmlns:inkscape="http://www.inkscape.org/namespaces/inkscape"
   viewBox="0 0 1962.4457 1920"
   version="1.1"
   id="svg893"
   sodipodi:docname="25vertpims.svg"
   width="1962.4458"
   height="1920"
   inkscape:version="1.0.2 (e86c8708, 2021-01-15)">
  <metadata
     id="metadata897">
    <rdf:RDF>
      <cc:Work
         rdf:about="">
        <dc:format>image/svg+xml</dc:format>
        <dc:type
           rdf:resource="http://purl.org/dc/dcmitype/StillImage" />
      </cc:Work>
    </rdf:RDF>
  </metadata>
  <sodipodi:namedview
     pagecolor="#ffffff"
     bordercolor="#666666"
     borderopacity="1"
     objecttolerance="10"
     gridtolerance="10"
     guidetolerance="10"
     inkscape:pageopacity="0"
     inkscape:pageshadow="2"
     inkscape:window-width="1338"
     inkscape:window-height="733"
     id="namedview895"
     showgrid="false"
     inkscape:zoom="1.2908449"
     inkscape:cx="981.24221"
     inkscape:cy="960"
     inkscape:window-x="1222"
     inkscape:window-y="377"
     inkscape:window-maximized="0"
     inkscape:current-layer="svg893" />
  <defs
     id="defs835">
    <style
       id="style833">.cls-1{fill:#005cb9;}.cls-2{fill:#9d9d9c;}.cls-3{fill:#fff;}</style>
  </defs>
  <g
     id="Layer_2"
     data-name="Layer 2"
     transform="matrix(4.4128801,0,0,4.4128801,0.17040995,0)"
     inkscape:export-xdpi="96"
     inkscape:export-ydpi="96">
    <g
       id="Layer_1-2"
       data-name="Layer 1">
      <path
         class="cls-1"
         d="m 73.92,359.3 c 0,25.37 -19.49,35.27 -33.57,35.27 A 35.6,35.6 0 0 1 25,391.47 v 31.09 c 0,8.82 2.16,10.68 14.85,10.68 0.62,0 0.62,1.85 0,1.85 -5.57,0 -12.53,-0.31 -20.11,-0.31 -5.57,0 -10.83,0.31 -14.69,0.31 -0.62,0 -0.62,-1.85 0,-1.85 7.88,0 9.43,-1.86 9.43,-10.68 v -72.39 c 0,-7 -1.39,-10.05 -5.41,-10.05 a 20.27,20.27 0 0 0 -7.89,2.32 c -0.77,0.31 -1.7,-1.39 -0.93,-1.7 l 18.72,-9 a 3.07,3.07 0 0 1 0.92,-0.31 c 2.33,0 4.65,4 5.11,11.6 8.51,-8.51 16.55,-12.22 24.9,-12.22 12.73,0.03 24.02,10.39 24.02,28.49 z m -11.76,4.8 c 0,-17.48 -8.81,-26.45 -19.8,-26.45 -7,0 -12.22,3.4 -17.32,8.35 v 36 c 4.79,5.41 10.21,9.12 19.49,9.12 10.36,0.04 17.63,-9.24 17.63,-27.02 z"
         id="path837" />
      <path
         class="cls-1"
         d="m 94.8,390.7 c 7.42,0 9.28,-2 9.28,-10.67 v -28.46 c 0,-7.27 -1.24,-10.37 -5,-10.37 a 16.22,16.22 0 0 0 -6.65,2 c -0.77,0.31 -1.55,-1.54 -0.77,-1.85 l 21,-9.75 0.62,-0.15 a 1.8,1.8 0 0 1 1.55,1.55 c 0,1.85 -0.31,8.19 -0.31,18.25 V 380 c 0,8.66 1.7,10.67 9.28,10.67 0.62,0 0.62,1.86 0,1.86 -3.87,0 -9,-0.31 -14.54,-0.31 -5.54,0 -10.67,0.31 -14.54,0.31 -0.54,0.03 -0.54,-1.83 0.08,-1.83 z m 5.88,-84 c 0,-4.49 2.94,-7.27 7.73,-7.27 4.79,0 7.27,2.78 7.27,7.27 0,4.79 -2.63,7.58 -7.27,7.58 -4.64,0 -7.73,-2.78 -7.73,-7.57 z"
         id="path839" />
      <path
         class="cls-1"
         d="m 252.41,392.56 c -3.86,0 -9.12,-0.31 -14.69,-0.31 -5.57,0 -10.67,0.31 -14.54,0.31 -0.46,0 -0.46,-1.86 0,-1.86 7.58,0 9.44,-2 9.44,-10.67 v -23.82 c 0,-11.91 -4.18,-17.48 -12.84,-17.48 -5.88,0 -12.22,3.25 -16.86,8.66 V 380 c 0,8.66 1.7,10.67 9.28,10.67 0.62,0 0.62,1.86 0,1.86 -3.87,0 -9,-0.31 -14.54,-0.31 -5.54,0 -10.67,0.31 -14.54,0.31 -0.62,0 -0.62,-1.86 0,-1.86 7.42,0 9.28,-2 9.28,-10.67 v -23.79 c 0,-11.91 -4,-17.48 -12.68,-17.48 -5.88,0 -11.91,3.09 -16.55,8.2 V 380 c 0,8.66 1.7,10.67 9.28,10.67 0.62,0 0.62,1.86 0,1.86 -3.87,0 -9,-0.31 -14.54,-0.31 -5.54,0 -10.83,0.31 -14.54,0.31 -0.62,0 -0.62,-1.86 0,-1.86 7.42,0 9.12,-2 9.12,-10.67 v -30.14 c 0,-6.65 -1.39,-9.59 -5.1,-9.59 -2,0 -4.8,0.78 -8.2,2.17 -0.77,0.46 -1.55,-1.39 -0.77,-1.7 l 19.18,-9.13 a 2,2 0 0 1 0.93,-0.15 c 1.7,0 4.48,4.48 4.64,12.53 7.11,-8.51 14.54,-12.84 22.73,-12.84 9.28,0 15.16,4.64 16.71,13.61 7.42,-9 15,-13.61 23.51,-13.61 10.67,0 17,6.19 17,19 V 380 c 0,8.66 1.55,10.67 9.28,10.67 0.6,0.03 0.6,1.89 0.01,1.89 z"
         id="path841" />
      <path
         class="cls-1"
         d="m 293.1,356.67 c 7.73,4.18 15.93,8.2 15.93,18.41 0,9.9 -7.74,19.18 -22.28,19.18 a 26.67,26.67 0 0 1 -15.15,-4.49 2.39,2.39 0 0 1 -0.93,-1.85 l -0.31,-13.15 c 0,-0.62 1.7,-0.78 1.85,-0.16 3.72,10.37 10.83,16.71 19,16.71 5.88,0 9.43,-3.09 9.13,-9.28 -0.16,-8.66 -7.12,-12.22 -13.77,-15.62 -7.58,-3.72 -15.31,-7.43 -15.31,-17.95 0,-12.37 10.82,-17.48 21.5,-17.48 a 29.46,29.46 0 0 1 11.75,2.32 c 1.24,0.47 1.39,1.09 1.39,1.71 0,3.71 -0.31,7.42 -0.31,12.22 0,0.46 -1.85,0.46 -1.85,0 0,-6.5 -8.51,-13.15 -16.4,-13.15 -4.33,0 -7.73,2 -7.73,7.58 0.03,7.58 6.68,11.44 13.49,15 z"
         id="path843" />
      <path
         class="cls-2"
         d="m 306.12,190.48 20.39,-35.87 -5.41,-1.47 c -10.07,14.49 -19.16,16.94 -31.69,16.94 l -27,1 c 22.35,-12 73.94,-36.85 73.94,-68 0,-13.76 -9.82,-23.09 -26,-23.09 -16.7,0 -35.37,8.35 -48.88,27.51 l 3.93,6.14 c 13,-15 24.81,-18.91 33.65,-18.91 9.83,0 13.51,4.91 13.51,11.3 0,24.32 -50.85,56.25 -78.85,75.66 l 0.73,6.14 H 301 l -0.49,2.71 z"
         id="path845" />
      <path
         class="cls-2"
         d="M 426,104 444.67,74 H 439 c -6.88,6.88 -15.23,8.11 -28.5,8.11 h -37.57 l -41,63.87 3.19,4.91 c 33.17,-6.88 45.45,8.11 45.45,24.81 0,23.1 -22.85,51.1 -42.5,51.1 -16,0 -12.53,-19.65 -25.06,-19.65 -6.88,0 -10.56,3.44 -10.56,10.32 0,12 16.7,16.95 30.95,16.95 35.62,0 73.95,-29.48 73.95,-64.61 0,-22.6 -16,-41.52 -59.7,-35.87 l 19.65,-30 z"
         id="path847" />
      <path
         class="cls-1"
         d="m 282.67,220.74 a 144.7,144.7 0 0 1 -242.19,0 h 48.69 a 107.28,107.28 0 0 0 144.9,0 z"
         id="path849" />
      <circle
         class="cls-1"
         cx="253.5"
         cy="54.130001"
         r="7.1700001"
         id="circle851" />
      <circle
         class="cls-1"
         cx="40.799999"
         cy="176.89999"
         r="7.1700001"
         id="circle853" />
      <circle
         class="cls-1"
         cx="230.49001"
         cy="34.68"
         r="8.7600002"
         id="circle855" />
      <circle
         class="cls-1"
         cx="199.91"
         cy="19.940001"
         r="10.67"
         id="circle857" />
      <circle
         class="cls-1"
         cx="161.98"
         cy="13.6"
         r="13.6"
         id="circle859" />
      <circle
         class="cls-1"
         cx="119"
         cy="20.27"
         r="15.89"
         id="circle861" />
      <circle
         class="cls-1"
         cx="35.099998"
         cy="146.77"
         r="8.7600002"
         id="circle863" />
      <circle
         class="cls-1"
         cx="37.529999"
         cy="113.36"
         r="10.67"
         id="circle865" />
      <circle
         class="cls-1"
         cx="51.25"
         cy="77.129997"
         r="13.6"
         id="circle867" />
      <circle
         class="cls-1"
         cx="79.230003"
         cy="43.470001"
         r="15.89"
         id="circle869" />
      <path
         class="cls-1"
         d="m 110.43,116.55 c 0,0 -6.3,1.39 -8.46,1.82 -18.52,3.11 -16.19,13.74 -10.28,28.6 2,5.05 -4.58,6 -8.52,6.18 a 78.29,78.29 0 0 0 16.56,36 c 15.47,-50.5 10.7,-72.6 10.7,-72.6 z m 59,-12.69 -36.29,7.94 c 3.94,29.87 6.09,72.47 4.31,102.72 A 79,79 0 0 0 197,209.08 C 177.94,166.72 169.43,103.86 169.43,103.86 Z M 160.62,60.69 A 78.57,78.57 0 0 0 96,94.49 55.42,55.42 0 0 1 108.3,91.13 c 21.67,-4.28 35.87,6.52 85.89,-3.74 a 80.9,80.9 0 0 0 19,-6.51 78.27,78.27 0 0 0 -52.57,-20.19 z m 63.23,31.9 -34.58,7.25 c 2.09,16.12 20.5,49.68 41.87,74.36 a 78.73,78.73 0 0 0 -7.29,-81.61 z"
         id="path871" />
      <path
         class="cls-3"
         d="m 90.67,238.7 a 6.44,6.44 0 0 1 -0.46,0.87 12,12 0 0 1 -0.83,1.26 2.05,2.05 0 0 1 -0.25,0.27 h -0.09 l -0.51,-0.45 -0.08,-0.09 a 4.75,4.75 0 0 0 0.37,-1.84 2.2,2.2 0 0 0 -0.88,-1.62 2.1,2.1 0 0 0 -1.45,-0.51 1.59,1.59 0 0 0 -1.16,0.62 1.65,1.65 0 0 0 -0.28,1.25 5.44,5.44 0 0 0 1.13,2.21 11,11 0 0 1 0.77,1.27 4.36,4.36 0 0 1 0.48,1.41 3.69,3.69 0 0 1 -0.07,1.36 3.82,3.82 0 0 1 -0.66,1.2 4.82,4.82 0 0 1 -1.32,1.18 2.91,2.91 0 0 1 -1,0.33 5.82,5.82 0 0 1 -1.1,0 4.33,4.33 0 0 1 -1.31,-0.31 6.68,6.68 0 0 1 -1.39,-0.86 7.74,7.74 0 0 1 -1.13,-1.11 l -0.7,-0.95 a 1.78,1.78 0 0 1 -0.32,-0.55 0.32,0.32 0 0 1 0,-0.19 l 0.06,-0.08 0.75,-1.05 0.51,-0.7 0.22,-0.28 0.7,0.51 c -0.18,0.74 -0.29,1.19 -0.31,1.36 a 3,3 0 0 0 0,1 2.55,2.55 0 0 0 0.38,0.89 3.16,3.16 0 0 0 0.73,0.78 3.25,3.25 0 0 0 1,0.51 2,2 0 0 0 1.21,0 1.72,1.72 0 0 0 0.94,-0.62 1.7,1.7 0 0 0 0.28,-1.41 7.74,7.74 0 0 0 -1.09,-2.08 10.21,10.21 0 0 1 -1.12,-2.28 3.31,3.31 0 0 1 0,-1.66 3.55,3.55 0 0 1 0.64,-1.46 3.42,3.42 0 0 1 2.4,-1.36 4.33,4.33 0 0 1 3.14,1.1 7.23,7.23 0 0 1 1,0.94 10.13,10.13 0 0 1 0.8,1.14 z"
         id="path873" />
      <path
         class="cls-3"
         d="m 93,254.57 0.34,-0.59 0.61,0.17 a 3.56,3.56 0 0 0 0.94,0.18 1.51,1.51 0 0 0 0.55,-0.61 l 0.55,-1 1.08,-1.85 0.25,-0.45 1,-1.63 0.6,-1.09 0.28,-0.43 0.49,-1 0.19,-0.36 a 2.35,2.35 0 0 0 0.09,-0.3 3.62,3.62 0 0 0 -1,-0.81 l -0.27,-0.19 0.39,-0.73 2.28,1.44 0.53,0.32 c 0.32,0.19 0.84,0.46 1.58,0.82 l 0.78,0.38 -0.14,0.27 c -0.06,0.09 -0.13,0.21 -0.23,0.35 q -0.39,-0.07 -0.87,-0.21 a 5,5 0 0 0 -0.81,-0.19 4.22,4.22 0 0 0 -0.4,0.58 c -0.13,0.24 -0.23,0.43 -0.3,0.59 -0.54,0.91 -1,1.61 -1.24,2.11 l -1.23,2.16 -0.67,1.07 -0.9,1.65 -0.2,0.29 a 0.53,0.53 0 0 0 -0.06,0.22 9.87,9.87 0 0 0 0.81,0.66 l 0.46,0.35 a 3.63,3.63 0 0 1 -0.2,0.43 3.17,3.17 0 0 1 -0.17,0.27 l -0.16,-0.08 -0.31,-0.16 a 1.1,1.1 0 0 1 -0.2,-0.15 l -1,-0.73 -1.44,-0.85 c -0.28,-0.16 -0.72,-0.37 -1.29,-0.63 z"
         id="path875" />
      <path
         class="cls-3"
         d="m 111.29,251.54 0.19,-0.63 0.75,0.29 0.26,0.08 0.74,0.25 0.61,0.25 a 1.32,1.32 0 0 0 0.19,0.08 l 0.56,0.19 0.55,0.19 0.27,0.11 c 0.59,1.16 1.06,2.15 1.41,3 0.35,0.85 1.64,3.67 3.89,8.58 l 0.08,-0.23 0.35,-1 c 0.21,-0.6 0.36,-1.09 0.47,-1.45 0.11,-0.36 0.24,-0.78 0.41,-1.27 0.17,-0.49 0.32,-0.93 0.44,-1.34 0.22,-0.8 0.35,-1.25 0.39,-1.37 a 1.29,1.29 0 0 0 0.14,-0.74 1.63,1.63 0 0 0 -0.73,-0.61 2.6,2.6 0 0 1 -0.65,-0.47 l 0.2,-0.52 0.24,0.06 1.76,0.6 2,0.68 0.38,0.13 -0.21,0.57 a 1.85,1.85 0 0 1 -0.47,0 4.82,4.82 0 0 0 -0.72,-0.06 2.45,2.45 0 0 0 -0.6,0.13 0.61,0.61 0 0 0 -0.21,0.3 l -0.12,0.37 q 0,0.17 -0.27,0.75 -0.47,1.28 -0.69,2 c 0,0.16 -0.1,0.35 -0.17,0.55 l -1.07,3.12 c -0.07,0.22 -0.13,0.38 -0.16,0.47 l -0.41,1.08 -0.14,0.47 -0.21,0.46 c -0.07,0.25 -0.11,0.4 -0.13,0.45 l -0.17,0.46 -1,-0.34 -0.64,-1.48 -1.34,-2.93 -0.93,-2.06 -0.68,-1.54 c -0.45,-1 -0.87,-1.84 -1.26,-2.59 l -0.94,-1.84 -1.24,3.26 c -0.07,0.2 -0.14,0.41 -0.22,0.62 l -0.25,0.62 -0.38,1.17 c -0.16,0.49 -0.32,1 -0.49,1.61 a 2.13,2.13 0 0 0 -0.08,0.34 c 0,0.06 0,0.17 0,0.3 a 6.85,6.85 0 0 0 1.43,0.75 l 0.2,0.15 -0.23,0.73 -0.35,-0.12 c -0.19,-0.08 -0.76,-0.34 -1.73,-0.81 -0.97,-0.47 -1.56,-0.55 -1.88,-0.65 l -0.53,-0.15 -0.28,-0.15 a 3.5,3.5 0 0 1 0.12,-0.35 c 0,-0.07 0.07,-0.17 0.13,-0.32 a 4.09,4.09 0 0 1 0.42,0.11 l 0.34,0.15 a 2.25,2.25 0 0 0 0.91,0.22 c 0.12,0 0.25,-0.22 0.38,-0.54 0.39,-0.92 0.63,-1.48 0.7,-1.69 l 0.19,-0.48 1.09,-2.86 0.65,-1.79 a 6.08,6.08 0 0 0 0.4,-1.47 0.8,0.8 0 0 0 -0.07,-0.43 2.13,2.13 0 0 0 -0.51,-0.73 6.63,6.63 0 0 0 -1.08,-0.69 z"
         id="path877" />
      <path
         class="cls-3"
         d="m 144.93,260.54 c 0,0.2 0.11,0.75 0.2,1.67 a 5.14,5.14 0 0 1 0,1.29 l -0.84,-0.15 a 6.09,6.09 0 0 0 -1.51,-2.14 4.26,4.26 0 0 0 -2,-0.94 2.86,2.86 0 0 0 -2.52,0.71 6.85,6.85 0 0 0 -2,4 8.82,8.82 0 0 0 -0.19,2.28 5.83,5.83 0 0 0 0.52,1.92 2.88,2.88 0 0 0 0.87,1 3.88,3.88 0 0 0 1.66,0.73 3.59,3.59 0 0 0 2.09,-0.28 7.12,7.12 0 0 0 2.16,-1.56 6,6 0 0 1 0.91,0.09 c -0.07,0.23 -0.15,0.47 -0.25,0.71 -0.1,0.24 -0.18,0.47 -0.43,1.13 l -0.13,0.26 -0.21,0.41 a 3.87,3.87 0 0 1 -1.71,0.37 13.25,13.25 0 0 1 -2.55,-0.23 10.37,10.37 0 0 1 -2.11,-0.61 5.16,5.16 0 0 1 -1.62,-1 6.32,6.32 0 0 1 -1.39,-1.74 5.41,5.41 0 0 1 -0.59,-1.85 6.62,6.62 0 0 1 0.08,-2.11 6.23,6.23 0 0 1 2.63,-4.2 6.41,6.41 0 0 1 5,-1 20,20 0 0 1 2.15,0.51 14,14 0 0 1 1.78,0.73 z"
         id="path879" />
      <path
         class="cls-3"
         d="m 153.93,261.3 c 0.36,0 0.67,0.05 0.93,0.1 a 12.48,12.48 0 0 0 1.73,0.11 h 1.74 c 1.4,0 2.66,-0.06 3.79,-0.05 h 1.7 a 13.8,13.8 0 0 1 1.69,0.15 0.72,0.72 0 0 1 0.17,0.51 v 1.94 0.38 a 1.16,1.16 0 0 1 0,0.17 h -0.39 -0.32 c -0.05,-0.13 -0.13,-0.32 -0.22,-0.56 l -0.37,-0.67 a 3.78,3.78 0 0 0 -0.6,-0.87 2.29,2.29 0 0 0 -0.6,-0.08 l -0.57,-0.05 c -0.58,-0.06 -1.21,-0.09 -1.88,-0.1 -0.67,-0.01 -1.45,0 -2.05,0 0,0.16 0,0.78 0,1.86 v 2.76 a 3.58,3.58 0 0 0 0.4,0 c 1.13,0 1.93,0 2.41,-0.05 a 2.31,2.31 0 0 0 0.89,-0.18 1,1 0 0 0 0.31,-0.4 c 0,-0.14 0.16,-0.6 0.34,-1.38 h 0.66 c 0,0.56 0,1 0,1.27 0,0.66 0,1.09 0,1.27 0,0.18 0,0.34 0,0.45 0,0.11 0,0.44 0,0.81 0,0.37 0,0.65 0,0.83 v 0.21 H 163 c 0,-0.1 -0.07,-0.3 -0.14,-0.62 a 3.7,3.7 0 0 0 -0.33,-1.09 0.62,0.62 0 0 0 -0.37,-0.26 8.3,8.3 0 0 0 -1.4,-0.08 20.34,20.34 0 0 0 -2.14,0.06 v 0.32 c 0,0.74 0,1.37 0,1.86 v 2 a 0.52,0.52 0 0 0 0.26,0.5 7.81,7.81 0 0 0 2.36,0.21 10.26,10.26 0 0 0 2.22,-0.18 2.13,2.13 0 0 0 1.11,-0.62 4.73,4.73 0 0 0 1.08,-1.76 h 0.48 0.31 c 0,0.16 0,0.29 -0.05,0.4 l -0.06,0.28 -0.35,1.78 -0.18,1.07 h -1 l -2.81,-0.12 c -1.08,0 -2.37,-0.09 -3.88,-0.1 -0.76,0 -1.68,0 -2.78,0.07 h -0.4 -1.14 v -0.65 a 5.57,5.57 0 0 1 0.71,-0.09 4.61,4.61 0 0 0 1.36,-0.29 1.92,1.92 0 0 0 0.11,-0.69 v -4.38 -1.07 -1.5 -1.07 l -0.07,-1.16 c 0,0 0,-0.1 0,-0.19 a 0.47,0.47 0 0 0 -0.28,-0.14 l -0.28,-0.05 a 5.51,5.51 0 0 0 -1,-0.14 l -0.41,-0.05 z"
         id="path881" />
      <path
         class="cls-3"
         d="m 190.27,257.68 0.62,-0.17 0.29,-0.07 0.58,-0.13 a 4,4 0 0 1 0.14,0.42 c 0,0 0,0.13 0.06,0.29 0.06,0.16 0.09,0.41 0.23,1 l 0.32,1.38 0.22,0.87 1.47,6.18 0.13,0.52 a 0.54,0.54 0 0 0 0.22,0.36 1.51,1.51 0 0 0 0.73,0 l 0.92,-0.07 a 1.15,1.15 0 0 1 0.06,0.17 c 0,0.07 0,0.21 0.09,0.44 l -0.39,0.1 c -0.27,0.06 -0.66,0.15 -1.18,0.25 l -0.65,0.13 -1.6,0.45 -0.26,0.07 h -0.16 l -0.27,0.05 -0.24,0.08 -0.46,0.09 -0.37,0.12 c -0.05,-0.13 -0.08,-0.23 -0.1,-0.3 -0.02,-0.07 0,-0.17 0,-0.31 0.23,-0.13 0.49,-0.26 0.8,-0.41 a 2.32,2.32 0 0 0 0.75,-0.47 0.44,0.44 0 0 0 0.06,-0.39 l -0.16,-0.62 -0.13,-0.68 -0.35,-1.39 -0.1,-0.36 -0.12,-0.55 c 0,-0.16 -0.06,-0.31 -0.09,-0.44 -0.03,-0.13 -0.09,-0.32 -0.21,-0.73 l -0.09,-0.53 a 6.09,6.09 0 0 1 -0.21,-0.7 1.31,1.31 0 0 1 -0.06,-0.27 v -0.23 l -0.18,-0.62 v -0.29 l -0.12,-0.51 c -0.05,-0.21 -0.12,-0.46 -0.2,-0.76 a 16.39,16.39 0 0 1 -1.24,1.34 c 0,0 -0.29,0.24 -0.73,0.57 a 3.47,3.47 0 0 1 -0.53,-0.56 15,15 0 0 0 1.13,-1.07 15.3,15.3 0 0 0 1,-1.31 7,7 0 0 0 0.38,-0.94 z"
         id="path883" />
      <path
         class="cls-3"
         d="m 207.08,265.78 a 0.58,0.58 0 0 1 -0.27,-0.27 0.32,0.32 0 0 1 0,-0.27 1.94,1.94 0 0 1 0.41,-0.44 6.83,6.83 0 0 0 1.24,-1.46 5,5 0 0 0 0.64,-1.63 5.32,5.32 0 0 0 0,-1.78 8.33,8.33 0 0 0 -0.3,-1.37 c 0,-0.11 -0.11,-0.37 -0.22,-0.79 a 8.36,8.36 0 0 0 -0.37,-1.1 6.44,6.44 0 0 0 -1.74,-2.85 1.32,1.32 0 0 0 -1.27,-0.23 1.3,1.3 0 0 0 -0.75,0.91 3.79,3.79 0 0 0 0.28,2.29 11.94,11.94 0 0 0 0.72,1.52 2.55,2.55 0 0 0 0.66,0.76 1,1 0 0 0 0.44,0.22 1.69,1.69 0 0 0 0.75,-0.1 1.72,1.72 0 0 0 0.43,-0.25 l 0.12,-0.08 a 0.28,0.28 0 0 1 0.23,0 0.54,0.54 0 0 1 0.11,0.79 3.62,3.62 0 0 1 -1.14,0.69 2.56,2.56 0 0 1 -0.53,0.17 5.6,5.6 0 0 1 -1.2,-0.05 3.55,3.55 0 0 1 -1.07,-0.44 2.66,2.66 0 0 1 -0.74,-0.72 5.56,5.56 0 0 1 -0.68,-1.24 4.39,4.39 0 0 1 -0.29,-2.11 3.35,3.35 0 0 1 0.76,-1.84 4,4 0 0 1 1.58,-1.14 3.83,3.83 0 0 1 3.27,0.18 5.82,5.82 0 0 1 2.55,3.24 8.52,8.52 0 0 1 0.54,2.7 10.19,10.19 0 0 1 -0.15,1.5 6.61,6.61 0 0 1 -0.77,2.22 6.53,6.53 0 0 1 -1.45,1.84 5.73,5.73 0 0 1 -1.48,1 z"
         id="path885" />
      <path
         class="cls-3"
         d="m 223.57,258.38 a 0.55,0.55 0 0 1 -0.3,-0.23 0.33,0.33 0 0 1 0,-0.27 1.91,1.91 0 0 1 0.35,-0.49 6.7,6.7 0 0 0 1,-1.61 4.75,4.75 0 0 0 0.4,-1.71 5,5 0 0 0 -0.2,-1.76 8.24,8.24 0 0 0 -0.49,-1.32 c 0,-0.1 -0.16,-0.35 -0.33,-0.76 a 9.67,9.67 0 0 0 -0.51,-1 6.56,6.56 0 0 0 -2.13,-2.59 1.3,1.3 0 0 0 -1.28,0 1.23,1.23 0 0 0 -0.61,1 3.67,3.67 0 0 0 0.59,2.23 11.67,11.67 0 0 0 0.91,1.4 2.5,2.5 0 0 0 0.76,0.66 1.08,1.08 0 0 0 0.47,0.17 1.77,1.77 0 0 0 0.73,-0.21 2.55,2.55 0 0 0 0.39,-0.3 l 0.11,-0.1 a 0.26,0.26 0 0 1 0.23,0 0.52,0.52 0 0 1 0.24,0.23 0.43,0.43 0 0 1 0,0.54 3.62,3.62 0 0 1 -1,0.84 1.8,1.8 0 0 1 -0.5,0.24 5.21,5.21 0 0 1 -1.19,0.12 3.51,3.51 0 0 1 -1.12,-0.29 2.86,2.86 0 0 1 -0.84,-0.61 5.44,5.44 0 0 1 -0.84,-1.13 4.36,4.36 0 0 1 -0.58,-2.06 3.32,3.32 0 0 1 0.51,-1.92 3.81,3.81 0 0 1 1.41,-1.35 3.77,3.77 0 0 1 3.26,-0.26 5.78,5.78 0 0 1 3,2.85 8.75,8.75 0 0 1 0.9,2.6 10.67,10.67 0 0 1 0.05,1.51 6.39,6.39 0 0 1 -0.45,2.3 6.48,6.48 0 0 1 -1.18,2 5.35,5.35 0 0 1 -1.34,1.18 z"
         id="path887" />
      <path
         class="cls-3"
         d="m 236.58,242.41 -0.2,-0.24 -0.19,-0.26 a 2.14,2.14 0 0 0 0.2,-0.33 3,3 0 0 1 0.86,-1 2.83,2.83 0 0 1 2.3,-0.55 3.76,3.76 0 0 1 2.29,1.56 3.85,3.85 0 0 1 0.87,2.92 4,4 0 0 1 -1.71,2.63 3.18,3.18 0 0 1 -1.41,0.63 3.58,3.58 0 0 1 -1.52,-0.08 4.87,4.87 0 0 1 -1.42,-0.58 6.73,6.73 0 0 1 -1.82,-1.68 8.26,8.26 0 0 1 -1.13,-2.13 6.31,6.31 0 0 1 -0.4,-2.47 7.49,7.49 0 0 1 0.46,-2.34 10,10 0 0 1 0.86,-1.79 7.14,7.14 0 0 1 1.45,-1.77 0.28,0.28 0 0 1 0.23,0 0.42,0.42 0 0 1 0.24,0.18 1,1 0 0 1 0.16,0.29 4.09,4.09 0 0 1 -0.45,0.6 5.65,5.65 0 0 0 -1.07,2.06 5.5,5.5 0 0 0 -0.18,1.94 7.18,7.18 0 0 0 0.74,2.33 13.91,13.91 0 0 0 1.35,2.15 11.71,11.71 0 0 0 1.54,1.73 2.19,2.19 0 0 0 1.27,0.64 1.29,1.29 0 0 0 0.83,-0.32 1.13,1.13 0 0 0 0.34,-0.37 1.58,1.58 0 0 0 0.19,-0.72 2.61,2.61 0 0 0 -0.3,-1.12 7.26,7.26 0 0 0 -0.7,-1.1 4.19,4.19 0 0 0 -1.79,-1.59 1.44,1.44 0 0 0 -1.33,0.21 2.72,2.72 0 0 0 -0.56,0.57 z"
         id="path889" />
    </g>
  </g>
</svg>
