<?xml version="1.0" encoding="UTF-8" standalone="no"?>
<!-- Created with Inkscape (http://www.inkscape.org/) -->

<svg
   version="1.1"
   id="svg1"
   width="297.53333"
   height="413.13333"
   viewBox="0 0 297.53333 413.13333"
   sodipodi:docname="PIMS initials w ICON web.svg"
   inkscape:version="1.4.2 (ebf0e940, 2025-05-08)"
   xmlns:inkscape="http://www.inkscape.org/namespaces/inkscape"
   xmlns:sodipodi="http://sodipodi.sourceforge.net/DTD/sodipodi-0.dtd"
   xmlns="http://www.w3.org/2000/svg"
   xmlns:svg="http://www.w3.org/2000/svg">
  <defs
     id="defs1">
    <clipPath
       clipPathUnits="userSpaceOnUse"
       id="clipPath2">
      <path
         d="M 2231.48,1983.92 C 2231.48,1368.4 1732.52,869.512 1117,869.512 501.469,869.512 2.48828,1368.4 2.48828,1983.92 2.48828,2599.49 501.43,3098.49 1117,3098.49 c 615.52,0 1114.48,-499 1114.48,-1114.57 z"
         transform="translate(0,-2.5e-5)"
         id="path2" />
    </clipPath>
  </defs>
  <sodipodi:namedview
     id="namedview1"
     pagecolor="#ffffff"
     bordercolor="#666666"
     borderopacity="1.0"
     inkscape:showpageshadow="2"
     inkscape:pageopacity="0.0"
     inkscape:pagecheckerboard="0"
     inkscape:deskcolor="#d1d1d1"
     showgrid="false"
     inkscape:zoom="1.2368363"
     inkscape:cx="148.76666"
     inkscape:cy="206.57544"
     inkscape:window-width="1152"
     inkscape:window-height="1186"
     inkscape:window-x="0"
     inkscape:window-y="31"
     inkscape:window-maximized="0"
     inkscape:current-layer="group-R5">
    <inkscape:page
       x="0"
       y="0"
       inkscape:label="1"
       id="page1"
       width="297.53333"
       height="413.13333"
       margin="0"
       bleed="0" />
  </sodipodi:namedview>
  <g
     id="g1"
     inkscape:groupmode="layer"
     inkscape:label="1">
    <g
       id="group-R5">
      <g
         id="g3">
        <path
           d="m 140.297,1875.67 c -83.7345,210.66 -116.6134,361.31 145.781,405.47 30.41,5.95 119.813,25.75 119.813,25.75 0,0 111.16,-515.1 -414.73866,-1733.878 H 746.754 c 84.422,370.539 54.598,1242.888 -19,1801.198 l 514.366,112.58 c 0,0 201.16,-1487.661 666.23,-1913.778 h 360.15 l -7.03,762.658 c -360.15,348.35 -704.14,943.81 -738.25,1208.14 l 738.25,154.71 -3.52,338.97 C 2180.53,3022.25 1923.64,2785.43 1592.82,2720.26 883.887,2574.75 682.707,2727.81 375.445,2667.29 132.195,2629.75 -5.30469,2493.8 -5.30469,2493.8 l -331.01931,-720.02 331.01931,13.9 c 44.86329,0 178.42169,4.07 145.60169,87.99 z M 2331.78,330.41 H -87.9336 V 3461.79 H 2331.78 V 330.41"
           style="fill:#1476c6;fill-opacity:1;fill-rule:nonzero;stroke:none"
           transform="matrix(0.13333333,0,0,-0.13333333,0,413.13333)"
           clip-path="url(#clipPath2)"
           id="path3" />
      </g>
      <path
         id="path4"
         d="m 242.949,312.93 c 11.633,-4.84 31,-7.758 51.352,-7.758 38.738,0 115.289,21.316 115.289,158.887 0,110.441 -55.235,147.261 -120.129,147.261 -18.426,0 -31.984,-3.879 -37.793,-8.718 -6.773,-5.821 -8.719,-15.5 -8.719,-30.043 z m 58.125,331.32 c 76.547,0 132.727,-13.559 170.516,-39.719 47.461,-31 73.617,-76.531 73.617,-141.441 0,-139.5 -120.129,-197.641 -220.867,-198.602 -7.754,0 -18.422,0.961 -24.231,1.942 l -57.16,13.558 V 139.512 c 0,-83.3128 7.754,-88.1604 89.125,-96.8831 V 14.5391 H 33.6914 v 28.0898 c 72.6526,9.6914 80.4106,13.5703 80.4106,96.8831 V 517.34 c 0,84.289 -9.688,92.039 -80.4106,98.82 v 28.09 H 301.074"
         style="fill:#1a6ec0;fill-opacity:1;fill-rule:nonzero;stroke:none"
         transform="matrix(0.13333333,0,0,-0.13333333,0,413.13333)" />
      <path
         id="path5"
         d="m 577.398,14.5391 v 28.0898 c 73.618,8.7227 80.407,14.5313 80.407,99.7931 v 373.957 c 0,84.281 -8.719,92.031 -80.407,99.781 v 28.09 h 289.661 v -28.09 c -71.688,-8.719 -80.407,-14.531 -80.407,-99.781 V 142.422 c 0,-85.2618 7.754,-90.1017 80.407,-99.7931 V 14.5391 H 577.398"
         style="fill:#1a6ec0;fill-opacity:1;fill-rule:nonzero;stroke:none"
         transform="matrix(0.13333333,0,0,-0.13333333,0,413.13333)" />
      <path
         id="path6"
         d="m 1467.74,14.5391 v 28.0898 c 72.65,9.6914 77.49,16.4727 77.49,109.4731 l 0.99,387.519 C 1474.51,371.051 1372.79,129.82 1324.35,14.5391 h -25.18 C 1254.61,127.879 1163.53,358.461 1093.77,528 c -13.56,-300.328 -13.56,-382.68 -13.56,-416.578 0.98,-48.4415 21.32,-60.0704 94.95,-68.7931 V 14.5391 H 939.75 v 28.0898 c 60.055,6.7813 81.37,19.3711 88.16,68.7931 3.86,30.019 7.74,84.277 31,430.137 1.93,36.82 -5.82,66.851 -89.14,74.601 v 28.09 h 202.48 L 1363.1,209.262 1555.9,644.25 h 195.7 v -28.09 c -78.48,-9.691 -86.24,-17.441 -85.25,-100.762 l 6.77,-363.296 c 0.96,-91.0629 4.84,-97.8403 82.35,-109.4731 V 14.5391 h -287.73"
         style="fill:#1a6ec0;fill-opacity:1;fill-rule:nonzero;stroke:none"
         transform="matrix(0.13333333,0,0,-0.13333333,0,413.13333)" />
      <path
         id="path7"
         d="m 2155.47,493.121 c -19.37,69.758 -54.25,131.758 -137.57,131.758 -57.16,0 -92.04,-39.719 -92.04,-97.848 0,-56.191 34.88,-87.191 119.16,-131.761 95.92,-51.34 164.7,-101.719 164.7,-200.54 C 2209.72,81.3789 2115.75,0 1981.09,0 c -56.19,0 -107.55,13.5703 -156.95,27.1289 -5.81,21.3125 -21.32,126.9101 -25.18,160.8201 l 28.09,5.813 c 20.33,-69.75 75.56,-160.8206 168.57,-160.8206 62,0 94.93,40.6992 94.93,103.6606 0,58.128 -34.88,95.91 -111.41,138.539 -94.93,53.289 -162.76,102.687 -162.76,202.48 0,100.758 78.48,180.188 218,180.188 62.96,0 111.4,-13.559 131.74,-15.489 3.88,-35.851 10.67,-87.199 17.44,-142.422 l -28.09,-6.777"
         style="fill:#1a6ec0;fill-opacity:1;fill-rule:nonzero;stroke:none"
         transform="matrix(0.13333333,0,0,-0.13333333,0,413.13333)" />
    </g>
  </g>
</svg>
